# xmcd
#
# Track frame offsets:
# 150
# 12562
# 38492
# 100897
#
# Disc length: 1619 seconds
#
#
# Revision: 0
# Processed by: cddbd v1.5.2PL0 Copyright (c) Steve Scherf et al.
# Submitted via: Nero 7, 11, 10, 0 
#
DISCID=26065104
DTITLE=Boz Scaggs - T-Bone Shuffle
DYEAR=1900
DGENRE=Blues
TTITLE0=T-Bone Shuffle
TTITLE1=It All Went Down The Drain (Live)
TTITLE2=Loan Me A Dime (Live)
TTITLE3=I've Got Your Love
EXTD=
EXTT0=T-Bone Shuffle
EXTT1=It All Went Down The Drain (Live)
EXTT2=Loan Me A Dime (Live)
EXTT3=I've Got Your Love
PLAYORDER=
